# Blender 3.3.1
# www.blender.org
mtllib lily pad.mtl
o Cylinder
v 0.480546 -0.026274 -0.920115
v 0.480546 0.026274 -0.920115
v 0.611619 -0.026274 -0.790578
v 0.611619 0.026274 -0.790578
v 0.719188 -0.026274 -0.632738
v 0.719188 0.026274 -0.632738
v 0.799119 -0.026274 -0.452659
v 0.799119 0.026274 -0.452659
v 0.848340 -0.026274 -0.257262
v 0.848340 0.026274 -0.257262
v 0.864960 -0.026274 -0.054056
v 0.864960 0.026274 -0.054056
v 0.848340 -0.026274 0.149150
v 0.848340 0.026274 0.149150
v 0.799119 -0.026274 0.344547
v 0.799119 0.026274 0.344547
v 0.719188 -0.026274 0.524626
v 0.719188 0.026274 0.524626
v 0.611619 -0.026274 0.682466
v 0.611619 0.026274 0.682466
v 0.480546 -0.026274 0.812003
v 0.480546 0.026274 0.812003
v 0.331006 -0.026274 0.908257
v 0.331006 0.026274 0.908257
v 0.168745 -0.026274 0.967530
v 0.168745 0.026274 0.967530
v -0.000000 -0.026274 0.987544
v -0.000000 0.026274 0.987544
v -0.168745 -0.026274 0.967530
v -0.168745 0.026274 0.967530
v -0.331006 -0.026274 0.908257
v -0.331006 0.026274 0.908257
v -0.480546 -0.026274 0.812003
v -0.480546 0.026274 0.812003
v -0.611619 -0.026274 0.682466
v -0.611619 0.026274 0.682466
v -0.719188 -0.026274 0.524626
v -0.719188 0.026274 0.524626
v -0.799119 -0.026274 0.344547
v -0.799119 0.026274 0.344547
v -0.848340 -0.026274 0.149150
v -0.848340 0.026274 0.149150
v -0.864960 -0.026274 -0.054056
v -0.864960 0.026274 -0.054056
v -0.848340 -0.026274 -0.257262
v -0.848340 0.026274 -0.257262
v -0.799119 -0.026274 -0.452659
v -0.799119 0.026274 -0.452659
v -0.719188 -0.026274 -0.632738
v -0.719188 0.026274 -0.632738
v -0.611619 -0.026274 -0.790578
v -0.611619 0.026274 -0.790578
v -0.480546 -0.026274 -0.920115
v -0.480546 0.026274 -0.920115
v 0.295822 -0.026274 -0.941714
v 0.393871 -0.026274 -0.975904
v 0.305228 -0.026274 -0.957312
v 0.317314 -0.026274 -0.970098
v 0.331474 -0.026274 -0.979433
v 0.346999 -0.026274 -0.984846
v 0.363111 -0.026274 -0.986068
v 0.379000 -0.026274 -0.983037
v 0.393871 0.026274 -0.975904
v 0.295822 0.026274 -0.941714
v 0.379000 0.026274 -0.983037
v 0.363111 0.026274 -0.986068
v 0.346999 0.026274 -0.984846
v 0.331474 0.026274 -0.979433
v 0.317314 0.026274 -0.970098
v 0.305228 0.026274 -0.957312
v -0.393871 -0.026274 -0.975904
v -0.295822 -0.026274 -0.941714
v -0.379000 -0.026274 -0.983037
v -0.363111 -0.026274 -0.986068
v -0.346999 -0.026274 -0.984846
v -0.331474 -0.026274 -0.979433
v -0.317314 -0.026274 -0.970098
v -0.305228 -0.026274 -0.957312
v -0.295822 0.026274 -0.941714
v -0.393871 0.026274 -0.975904
v -0.305228 0.026274 -0.957312
v -0.317314 0.026274 -0.970098
v -0.331474 0.026274 -0.979433
v -0.346999 0.026274 -0.984846
v -0.363111 0.026274 -0.986068
v -0.379000 0.026274 -0.983037
v 0.035183 0.026274 -0.572226
v -0.035183 0.026274 -0.572226
v -0.069161 0.026274 -0.476785
v -0.000000 0.026274 -0.411732
v 0.069161 0.026274 -0.476785
v 0.026472 0.026274 -0.557485
v 0.016434 0.026274 -0.547227
v 0.005571 0.026274 -0.541967
v -0.005571 0.026274 -0.541967
v -0.016434 0.026274 -0.547227
v -0.026472 0.026274 -0.557485
v -0.035183 -0.026274 -0.572226
v 0.035183 -0.026274 -0.572226
v 0.069161 -0.026274 -0.476785
v -0.000000 -0.026274 -0.411732
v -0.069161 -0.026274 -0.476785
v -0.026472 -0.026274 -0.557485
v -0.016434 -0.026274 -0.547227
v -0.005571 -0.026274 -0.541967
v 0.005571 -0.026274 -0.541967
v 0.016434 -0.026274 -0.547227
v 0.026472 -0.026274 -0.557485
vn -0.0000 -1.0000 -0.0000
vn 0.7029 -0.0000 -0.7113
vn 0.8263 -0.0000 -0.5632
vn 0.9140 -0.0000 -0.4057
vn 0.9697 -0.0000 -0.2443
vn 0.9967 -0.0000 -0.0815
vn 0.9967 -0.0000 0.0815
vn 0.9697 -0.0000 0.2443
vn 0.9140 -0.0000 0.4057
vn 0.8263 -0.0000 0.5632
vn 0.7029 -0.0000 0.7113
vn 0.5412 -0.0000 0.8409
vn 0.3431 -0.0000 0.9393
vn 0.1178 -0.0000 0.9930
vn -0.1178 -0.0000 0.9930
vn -0.3431 -0.0000 0.9393
vn -0.5412 -0.0000 0.8409
vn -0.7029 -0.0000 0.7113
vn -0.8263 -0.0000 0.5632
vn -0.9140 -0.0000 0.4057
vn -0.9697 -0.0000 0.2443
vn -0.9967 -0.0000 0.0815
vn -0.9967 -0.0000 -0.0815
vn -0.9697 -0.0000 -0.2443
vn -0.9140 -0.0000 -0.4057
vn -0.8263 -0.0000 -0.5632
vn -0.7029 -0.0000 -0.7113
vn 0.8172 -0.0000 -0.5764
vn -0.0000 1.0000 -0.0000
vn -0.5412 -0.0000 -0.8409
vn 0.5412 -0.0000 -0.8409
vn 0.4325 -0.0000 -0.9017
vn 0.1874 -0.0000 -0.9823
vn -0.0756 -0.0000 -0.9971
vn -0.3293 -0.0000 -0.9442
vn -0.5504 -0.0000 -0.8349
vn -0.7267 -0.0000 -0.6869
vn -0.8564 -0.0000 -0.5164
vn 0.8564 -0.0000 -0.5164
vn 0.7267 -0.0000 -0.6869
vn 0.5504 -0.0000 -0.8349
vn 0.3293 -0.0000 -0.9442
vn 0.0756 -0.0000 -0.9971
vn -0.1874 -0.0000 -0.9823
vn -0.4325 -0.0000 -0.9017
vn -0.8609 -0.0000 -0.5088
vn -0.7147 -0.0000 -0.6994
vn -0.4359 -0.0000 -0.9000
vn -0.0000 -0.0000 -1.0000
vn 0.4359 -0.0000 -0.9000
vn 0.7147 -0.0000 -0.6994
vn 0.8609 -0.0000 -0.5088
vn -0.8172 -0.0000 -0.5764
vt 0.883337 0.449553
vt 0.906250 0.500000
vt 0.383337 0.449553
vt 0.906250 1.000000
vt 0.919706 0.419706
vt 0.875000 0.500000
vt 0.875000 1.000000
vt 0.419706 0.419706
vt 0.949553 0.383337
vt 0.843750 0.500000
vt 0.843750 1.000000
vt 0.449553 0.383337
vt 0.971731 0.341844
vt 0.812500 0.500000
vt 0.812500 1.000000
vt 0.471731 0.341844
vt 0.985388 0.296822
vt 0.781250 0.500000
vt 0.781250 1.000000
vt 0.485388 0.296822
vt 0.750000 0.500000
vt 0.990000 0.250000
vt 0.750000 1.000000
vt 0.490000 0.250000
vt 0.718750 0.500000
vt 0.985388 0.203178
vt 0.718750 1.000000
vt 0.485388 0.203178
vt 0.687500 0.500000
vt 0.971731 0.158156
vt 0.687500 1.000000
vt 0.471731 0.158156
vt 0.656250 0.500000
vt 0.949553 0.116663
vt 0.656250 1.000000
vt 0.449553 0.116663
vt 0.625000 0.500000
vt 0.919706 0.080294
vt 0.625000 1.000000
vt 0.419706 0.080294
vt 0.593750 0.500000
vt 0.883337 0.050447
vt 0.593750 1.000000
vt 0.383337 0.050447
vt 0.562500 0.500000
vt 0.841844 0.028269
vt 0.562500 1.000000
vt 0.341844 0.028269
vt 0.531250 0.500000
vt 0.796822 0.014612
vt 0.531250 1.000000
vt 0.296822 0.014612
vt 0.500000 0.500000
vt 0.750000 0.010000
vt 0.500000 1.000000
vt 0.250000 0.010000
vt 0.468750 0.500000
vt 0.703178 0.014612
vt 0.468750 1.000000
vt 0.203178 0.014612
vt 0.437500 0.500000
vt 0.658156 0.028269
vt 0.437500 1.000000
vt 0.158156 0.028269
vt 0.406250 0.500000
vt 0.616663 0.050447
vt 0.406250 1.000000
vt 0.116663 0.050447
vt 0.375000 0.500000
vt 0.580294 0.080294
vt 0.375000 1.000000
vt 0.080294 0.080294
vt 0.343750 0.500000
vt 0.550447 0.116663
vt 0.343750 1.000000
vt 0.050447 0.116663
vt 0.312500 0.500000
vt 0.528269 0.158156
vt 0.312500 1.000000
vt 0.028269 0.158156
vt 0.281250 0.500000
vt 0.514612 0.203178
vt 0.281250 1.000000
vt 0.014612 0.203178
vt 0.250000 0.500000
vt 0.510000 0.250000
vt 0.250000 1.000000
vt 0.010000 0.250000
vt 0.218750 0.500000
vt 0.218750 1.000000
vt 0.014612 0.296822
vt 0.187500 0.500000
vt 0.187500 1.000000
vt 0.028269 0.341844
vt 0.156250 0.500000
vt 0.156250 1.000000
vt 0.050447 0.383337
vt 0.125000 0.500000
vt 0.125000 1.000000
vt 0.080294 0.419706
vt 0.093750 0.500000
vt 0.093750 1.000000
vt 0.116663 0.449553
vt 0.832082 0.448163
vt 0.859287 0.462407
vt 0.924363 0.500000
vt 0.834691 0.453210
vt 0.834260 0.453422
vt 0.838045 0.457597
vt 0.836342 0.458448
vt 0.841974 0.461051
vt 0.838222 0.462988
vt 0.846282 0.463305
vt 0.937500 0.500000
vt 0.841844 0.471731
vt 0.850752 0.464248
vt 0.930096 0.500000
vt 0.855161 0.463927
vt 0.927294 0.500000
vt 0.359287 0.462407
vt 0.924363 1.000000
vt 0.332082 0.448163
vt 0.355161 0.463927
vt 0.927294 1.000000
vt 0.350752 0.464248
vt 0.930096 1.000000
vt 0.346282 0.463305
vt 0.937500 1.000000
vt 0.341844 0.471731
vt 0.341974 0.461051
vt 0.338222 0.462988
vt 0.338045 0.457597
vt 0.336342 0.458448
vt 0.334691 0.453210
vt 0.334260 0.453422
vt 0.075637 0.500000
vt 0.135576 0.473427
vt 0.074333 0.499314
vt 0.072706 0.500000
vt 0.076402 0.497302
vt 0.069904 0.500000
vt 0.082029 0.494096
vt 0.067374 0.500000
vt 0.091500 0.489898
vt 0.062500 0.500000
vt 0.104366 0.484907
vt 0.103686 0.485023
vt 0.119417 0.479328
vt 0.119269 0.479357
vt 0.167918 0.448163
vt 0.140713 0.462407
vt 0.075637 1.000000
vt 0.165309 0.453210
vt 0.165740 0.453422
vt 0.161955 0.457597
vt 0.163658 0.458448
vt 0.158026 0.461051
vt 0.158156 0.471731
vt 0.062500 1.000000
vt 0.153718 0.463305
vt 0.067374 1.000000
vt 0.149248 0.464248
vt 0.069904 1.000000
vt 0.144839 0.463927
vt 0.072706 1.000000
vt 0.259762 0.273568
vt 0.255006 0.262085
vt 0.240238 0.273568
vt 0.230810 0.250000
vt 0.250000 0.234172
vt 0.269190 0.250000
vt 0.257715 0.268627
vt 0.256022 0.264539
vt 0.254768 0.261510
vt 0.254015 0.259692
vt 0.245232 0.261510
vt 0.253801 0.259175
vt 0.243978 0.264539
vt 0.254137 0.259987
vt 0.242284 0.268627
vt 0.676924 0.276573
vt 0.712530 0.263626
vt 0.759762 0.273568
vt 0.769190 0.250000
vt 0.750000 0.234172
vt 0.730810 0.250000
vt 0.692245 0.271002
vt 0.704920 0.266393
vt 0.714311 0.262978
vt 0.719949 0.260928
vt 0.754768 0.261510
vt 0.721551 0.260345
vt 0.756022 0.264539
vt 0.719035 0.261260
vt 0.757716 0.268627
s 0
usemtl Material.001
f 100/184/1 99/183/1 55/104/1 57/107/1 58/109/1 59/111/1 60/113/1 61/116/1 62/118/1 56/105/1 1/1/1 3/5/1 5/9/1 7/13/1 9/17/1 11/22/1
f 1/2/2 2/4/2 4/7/2 3/6/2
f 3/6/3 4/7/3 6/11/3 5/10/3
f 5/10/4 6/11/4 8/15/4 7/14/4
f 7/14/5 8/15/5 10/19/5 9/18/5
f 9/18/6 10/19/6 12/23/6 11/21/6
f 11/21/7 12/23/7 14/27/7 13/25/7
f 13/25/8 14/27/8 16/31/8 15/29/8
f 15/29/9 16/31/9 18/35/9 17/33/9
f 17/33/10 18/35/10 20/39/10 19/37/10
f 19/37/11 20/39/11 22/43/11 21/41/11
f 21/41/12 22/43/12 24/47/12 23/45/12
f 23/45/13 24/47/13 26/51/13 25/49/13
f 25/49/14 26/51/14 28/55/14 27/53/14
f 27/53/15 28/55/15 30/59/15 29/57/15
f 29/57/16 30/59/16 32/63/16 31/61/16
f 31/61/17 32/63/17 34/67/17 33/65/17
f 33/65/18 34/67/18 36/71/18 35/69/18
f 35/69/19 36/71/19 38/75/19 37/73/19
f 37/73/20 38/75/20 40/79/20 39/77/20
f 39/77/21 40/79/21 42/83/21 41/81/21
f 41/81/22 42/83/22 44/87/22 43/85/22
f 43/85/23 44/87/23 46/90/23 45/89/23
f 45/89/24 46/90/24 48/93/24 47/92/24
f 47/92/25 48/93/25 50/96/25 49/95/25
f 49/95/26 50/96/26 52/99/26 51/98/26
f 51/98/27 52/99/27 54/102/27 53/101/27
f 72/137/28 79/150/28 88/168/28 98/181/28
f 43/86/1 102/186/1 101/185/1 27/54/1 29/58/1 31/62/1 33/66/1 35/70/1 37/74/1 39/78/1 41/82/1
f 90/170/29 89/169/29 44/88/29 42/84/29 40/80/29 38/76/29 36/72/29 34/68/29 32/64/29 30/60/29 28/56/29
f 12/24/29 91/171/29 90/170/29 28/56/29 26/52/29 24/48/29 22/44/29 20/40/29 18/36/29 16/32/29 14/28/29
f 43/86/1 45/89/1 47/92/1 49/95/1 51/98/1 53/101/1 71/136/1 73/138/1 74/140/1 75/142/1 76/144/1 77/146/1 78/148/1 72/137/1 98/181/1 102/186/1
f 101/185/1 100/184/1 11/22/1 13/26/1 15/30/1 17/34/1 19/38/1 21/42/1 23/46/1 25/50/1 27/54/1
f 63/120/29 65/123/29 66/125/29 67/127/29 68/130/29 69/132/29 70/134/29 64/122/29 87/166/29 91/171/29 12/24/29 10/20/29 8/16/29 6/12/29 4/8/29 2/3/29
f 53/101/30 54/102/30 80/152/30 71/136/30
f 56/106/31 63/121/31 2/4/31 1/2/31
f 89/169/29 88/168/29 79/150/29 81/153/29 82/155/29 83/157/29 84/160/29 85/162/29 86/164/29 80/151/29 54/103/29 52/100/29 50/97/29 48/94/29 46/91/29 44/88/29
f 87/166/29 92/172/29 93/173/29 94/174/29 95/175/29 96/177/29 97/179/29 88/167/29 89/169/29 90/170/29 91/171/29
f 98/181/1 103/187/1 104/188/1 105/189/1 106/190/1 107/192/1 108/194/1 99/182/1 100/184/1 101/185/1 102/186/1
f 63/121/32 56/106/32 62/119/32 65/124/32
f 65/124/33 62/119/33 61/117/33 66/126/33
f 66/126/34 61/117/34 60/114/34 67/128/34
f 67/129/35 60/115/35 59/112/35 68/131/35
f 68/131/36 59/112/36 58/110/36 69/133/36
f 69/133/37 58/110/37 57/108/37 70/135/37
f 70/135/38 57/108/38 55/104/38 64/122/38
f 79/150/39 72/137/39 78/149/39 81/154/39
f 81/154/40 78/149/40 77/147/40 82/156/40
f 82/156/41 77/147/41 76/145/41 83/158/41
f 83/159/42 76/145/42 75/143/42 84/161/42
f 84/161/43 75/143/43 74/141/43 85/163/43
f 85/163/44 74/141/44 73/139/44 86/165/44
f 86/165/45 73/139/45 71/136/45 80/152/45
f 87/166/46 99/183/46 108/195/46 92/172/46
f 92/172/47 108/195/47 107/193/47 93/173/47
f 93/173/48 107/193/48 106/191/48 94/174/48
f 94/174/49 106/191/49 105/189/49 95/176/49
f 95/176/50 105/189/50 104/188/50 96/178/50
f 96/178/51 104/188/51 103/187/51 97/180/51
f 97/180/52 103/187/52 98/181/52 88/168/52
f 55/104/53 99/183/53 87/166/53 64/122/53
